<?xml version="1.0" standalone="no"?>
<!DOCTYPE svg PUBLIC "-//W3C//DTD SVG 20010904//EN"
 "http://www.w3.org/TR/2001/REC-SVG-20010904/DTD/svg10.dtd">
<svg version="1.0" xmlns="http://www.w3.org/2000/svg"
 width="176.000000pt" height="176.000000pt" viewBox="0 0 176.000000 176.000000"
 preserveAspectRatio="xMidYMid meet">
<metadata>
Created by potrace 1.11, written by Peter Selinger 2001-2013
</metadata>
<g transform="translate(0.000000,176.000000) scale(0.100000,-0.100000)"
fill="#000000" stroke="none">
<path d="M705 1743 c-268 -56 -500 -237 -615 -478 -67 -139 -85 -219 -84 -385
0 -167 14 -237 74 -367 110 -236 316 -411 570 -483 99 -29 314 -35 415 -14
243 53 467 214 587 423 24 41 57 118 75 171 l32 95 -3 190 c-2 177 -4 195 -29
263 -106 294 -332 501 -628 576 -111 28 -284 32 -394 9z m504 -340 c31 -26 32
-85 5 -192 -29 -116 -96 -257 -163 -344 -62 -81 -62 -100 0 -159 36 -34 45
-38 94 -38 30 0 55 -4 55 -10 0 -11 2 -11 -60 -15 -64 -5 -139 32 -167 82 -33
59 -52 148 -49 229 l3 73 -22 -30 c-36 -47 -76 -79 -140 -109 -83 -40 -164
-56 -272 -54 l-92 1 4 -31 c2 -17 6 -58 10 -91 4 -33 10 -66 15 -74 11 -21 -6
-51 -29 -51 -14 0 -21 13 -30 58 -15 77 -19 109 -20 159 -1 37 -5 43 -26 49
-35 9 -49 28 -36 53 6 11 20 23 32 26 12 4 30 16 40 26 29 29 39 23 39 -25 0
-39 3 -45 27 -51 32 -8 146 -8 186 0 48 9 131 44 178 74 81 51 89 126 22 195
-71 72 -146 95 -313 94 -99 -1 -129 -5 -197 -28 -121 -40 -195 -100 -198 -160
-2 -45 -45 -56 -45 -11 0 73 104 165 238 212 91 32 246 44 342 26 64 -12 75
-15 135 -37 66 -25 151 -101 157 -142 2 -16 11 1 27 52 29 94 61 152 119 213
51 52 92 62 131 30z m376 -530 c14 -13 16 -27 11 -66 l-7 -49 52 -47 c43 -39
52 -54 52 -80 0 -62 -52 -88 -125 -63 -26 10 -35 18 -31 29 4 10 14 13 32 10
57 -12 64 -11 74 5 13 20 -4 42 -51 71 -30 17 -31 17 -60 -8 -24 -20 -41 -25
-83 -25 -31 0 -62 7 -73 15 -16 12 -23 12 -49 -2 -39 -20 -97 -4 -126 34 -29
36 -27 61 6 74 22 8 30 7 40 -7 7 -10 11 -25 8 -35 -3 -9 1 -22 10 -29 16 -13
14 -14 82 36 21 15 23 14 40 -23 15 -31 24 -39 51 -41 62 -6 107 47 63 75 -16
10 -18 21 -12 68 2 14 60 75 71 75 5 0 16 -8 25 -17z"/>
<path d="M1123 1387 c-58 -65 -113 -194 -128 -303 -4 -27 -9 -58 -11 -69 -7
-35 -6 -146 1 -153 20 -20 115 137 157 258 25 73 48 208 41 243 -8 41 -35 52
-60 24z"/>
</g>
</svg>
